<?xml version="1.0" encoding="UTF-8" standalone="no"?>
<svg
   viewBox="0 0 448 512"
   version="1.1"
   id="svg4"
   sodipodi:docname="book.svg"
   inkscape:version="1.1 (c68e22c387, 2021-05-23)"
   xmlns:inkscape="http://www.inkscape.org/namespaces/inkscape"
   xmlns:sodipodi="http://sodipodi.sourceforge.net/DTD/sodipodi-0.dtd"
   xmlns="http://www.w3.org/2000/svg"
   xmlns:svg="http://www.w3.org/2000/svg">
  <defs
     id="defs8" />
  <sodipodi:namedview
     id="namedview6"
     pagecolor="#505050"
     bordercolor="#ffffff"
     borderopacity="1"
     inkscape:pageshadow="0"
     inkscape:pageopacity="0"
     inkscape:pagecheckerboard="1"
     showgrid="false"
     inkscape:zoom="1.609375"
     inkscape:cx="224"
     inkscape:cy="255.68932"
     inkscape:window-width="1920"
     inkscape:window-height="1009"
     inkscape:window-x="1912"
     inkscape:window-y="-8"
     inkscape:window-maximized="1"
     inkscape:current-layer="svg4" />
  <!--! Font Awesome Pro 6.2.1 by @fontawesome - https://fontawesome.com License - https://fontawesome.com/license (Commercial License) Copyright 2022 Fonticons, Inc. -->
  <path
     d="M96 0C43 0 0 43 0 96V416c0 53 43 96 96 96H384h32c17.7 0 32-14.3 32-32s-14.3-32-32-32V384c17.7 0 32-14.3 32-32V32c0-17.7-14.3-32-32-32H384 96zm0 384H352v64H96c-17.7 0-32-14.3-32-32s14.3-32 32-32zm32-240c0-8.8 7.2-16 16-16H336c8.8 0 16 7.2 16 16s-7.2 16-16 16H144c-8.8 0-16-7.2-16-16zm16 48H336c8.8 0 16 7.2 16 16s-7.2 16-16 16H144c-8.8 0-16-7.2-16-16s7.2-16 16-16z"
     id="path2" />
  <path
     style="fill:#ffffff;stroke-width:0.621359"
     d="M 86.990291,511.27413 C 73.967696,509.67436 63.18766,506.47748 52.54536,501.05928 26.250748,487.6722 7.4397794,462.38199 1.7542977,432.77378 0.6750021,427.15314 0.62135922,418.78318 0.62135922,256 0.62135922,95.620263 0.68839444,84.771741 1.7128879,79.354315 8.3093021,44.473121 33.357575,15.80824 66.644772,5.0472084 81.366953,0.28784464 64.546945,0.7057536 251.02913,0.46600569 372.49494,0.30984506 419.19364,0.4411269 421.90291,0.94637508 432.54873,2.9316965 441.9383,11.052691 445.98156,21.771889 l 1.39708,3.703839 0.18293,164.349512 c 0.1338,120.21266 -0.006,165.35073 -0.51895,168.07767 -2.39163,12.70377 -13.34355,23.25053 -26.28128,25.30901 L 416,383.96948 V 416 448.03052 l 4.76134,0.75756 c 14.44046,2.29758 25.529,14.23907 26.75041,28.80811 0.73943,8.81983 -2.34345,17.1816 -8.89529,24.12689 -4.40789,4.6726 -10.36291,8.07056 -16.27811,9.28835 -2.33657,0.48104 -51.2336,0.65086 -168.38835,0.58479 -90.8026,-0.0512 -165.934466,-0.19615 -166.959709,-0.32209 z M 352,416 v -32.31068 l -129.70874,0.009 c -112.16598,0.008 -130.234828,0.13322 -133.598612,0.92631 -11.870813,2.79883 -21.269002,12.19702 -24.067828,24.06783 -4.020199,17.05109 6.727276,34.51818 23.783189,38.6531 2.967264,0.71936 24.992611,0.86993 133.572571,0.91317 L 352,448.31068 Z m -9.00971,-193.48088 c 5.92372,-2.80045 8.97304,-7.80312 8.99606,-14.75885 0.0244,-7.37915 -4.67071,-13.53198 -11.78861,-15.44863 -1.58284,-0.42621 -35.264,-0.58336 -101.69,-0.47447 L 139.18447,192 l -2.52782,1.35306 c -11.6408,6.23094 -11.73682,23.26217 -0.16368,29.02931 l 3.24618,1.61763 100.07217,-0.006 100.07218,-0.006 3.10679,-1.46874 z m 0,-64 c 5.92372,-2.80045 8.97304,-7.80312 8.99606,-14.75885 0.0244,-7.37915 -4.67071,-13.53198 -11.78861,-15.44863 -1.58284,-0.42621 -35.264,-0.58336 -101.69,-0.47447 L 139.18447,128 l -2.52782,1.35306 c -11.6408,6.23094 -11.73682,23.26217 -0.16368,29.02931 l 3.24618,1.61763 100.07217,-0.006 100.07218,-0.006 3.10679,-1.46874 z"
     id="path121"
     inkscape:export-filename="E:\Personal\VS Code\vscode-bibmanager\resources\dark\path121.png"
     inkscape:export-xdpi="25.4"
     inkscape:export-ydpi="25.4" />
</svg>
