<?xml version="1.0" encoding="UTF-8" standalone="no"?>
<svg
   viewBox="0 0 640 640"
   version="1.1"
   id="svg4"
   sodipodi:docname="clear.svg"
   inkscape:version="1.1 (c68e22c387, 2021-05-23)"
   xmlns:inkscape="http://www.inkscape.org/namespaces/inkscape"
   xmlns:sodipodi="http://sodipodi.sourceforge.net/DTD/sodipodi-0.dtd"
   xmlns="http://www.w3.org/2000/svg"
   xmlns:svg="http://www.w3.org/2000/svg">
  <defs
     id="defs8" />
  <sodipodi:namedview
     id="namedview6"
     pagecolor="#505050"
     bordercolor="#ffffff"
     borderopacity="1"
     inkscape:pageshadow="0"
     inkscape:pageopacity="0"
     inkscape:pagecheckerboard="1"
     showgrid="false"
     inkscape:zoom="1.2875"
     inkscape:cx="319.61165"
     inkscape:cy="320.38835"
     inkscape:window-width="1920"
     inkscape:window-height="1009"
     inkscape:window-x="1912"
     inkscape:window-y="-8"
     inkscape:window-maximized="1"
     inkscape:current-layer="svg4" />
  <!--!Font Awesome Free 7.2.0 by @fontawesome - https://fontawesome.com License - https://fontawesome.com/license/free Copyright 2026 Fonticons, Inc.-->
  <path
     d="M504.6 148.5C515.9 134.9 514.1 114.7 500.5 103.4C486.9 92.1 466.7 93.9 455.4 107.5L320 270L184.6 107.5C173.3 93.9 153.1 92.1 139.5 103.4C125.9 114.7 124.1 134.9 135.4 148.5L278.3 320L135.4 491.5C124.1 505.1 125.9 525.3 139.5 536.6C153.1 547.9 173.3 546.1 184.6 532.5L320 370L455.4 532.5C466.7 546.1 486.9 547.9 500.5 536.6C514.1 525.3 515.9 505.1 504.6 491.5L361.7 320L504.6 148.5z"
     id="path2" />
  <path
     style="fill:#ffffff;stroke-width:0.776699"
     d="m 149.72261,541.82594 c -6.83555,-2.53357 -12.62707,-7.19594 -16.49901,-13.28225 -5.4456,-8.55996 -6.16627,-20.40617 -1.79915,-29.57404 1.8453,-3.87382 18.54342,-24.37404 74.69935,-91.70807 39.77754,-47.69545 72.3228,-86.96316 72.3228,-87.26158 0,-0.29842 -32.54526,-39.56613 -72.3228,-87.26158 -56.15593,-67.33403 -72.85405,-87.83425 -74.69935,-91.70807 -7.35621,-15.44286 -0.44317,-33.88782 15.66592,-41.798889 3.96347,-1.94643 5.15354,-2.144082 12.90963,-2.144082 7.57527,0 9.0279,0.228032 12.81553,2.011776 2.34952,1.106475 5.47724,3.028805 6.95049,4.271845 1.47325,1.24304 33.41111,39.13385 70.97303,84.20182 37.56191,45.06796 68.72934,81.94174 69.26095,81.94174 0.53161,0 31.7011,-36.87841 69.26555,-81.95203 37.56443,-45.07362 69.73665,-83.09069 71.4938,-84.48238 6.1585,-4.877623 9.73885,-5.992771 19.24065,-5.992771 7.75609,0 8.94616,0.197652 12.90963,2.144082 16.10909,7.911069 23.02214,26.356029 15.66592,41.798889 -1.8453,3.87382 -18.54343,24.37404 -74.69935,91.70807 -39.77754,47.69545 -72.3228,86.96316 -72.3228,87.26158 0,0.29842 32.54526,39.56613 72.3228,87.26158 56.15592,67.33403 72.85405,87.83425 74.69935,91.70807 7.35618,15.44278 0.44574,33.88254 -15.66371,41.79694 -3.96664,1.94877 -5.15346,2.14603 -12.91184,2.14603 -9.37209,0 -12.23924,-0.87277 -18.83642,-5.73384 -1.84959,-1.36285 -33.41454,-38.56492 -71.74972,-84.56335 C 351.76784,407.44393 320.53161,370.48544 320,370.48544 c -0.53161,0 -31.76784,36.95849 -69.41386,82.12999 -38.33518,45.99843 -69.90013,83.2005 -71.74972,84.56335 -5.9845,4.40962 -9.62109,5.62381 -17.67137,5.90013 -5.84378,0.20058 -8.22397,-0.06 -11.44244,-1.25297 z"
     id="path47" />
</svg>
