<?xml version="1.0" encoding="UTF-8" standalone="no"?>
<svg
   viewBox="0 0 640 640"
   version="1.1"
   id="svg4"
   sodipodi:docname="refresh.svg"
   inkscape:version="1.1 (c68e22c387, 2021-05-23)"
   xmlns:inkscape="http://www.inkscape.org/namespaces/inkscape"
   xmlns:sodipodi="http://sodipodi.sourceforge.net/DTD/sodipodi-0.dtd"
   xmlns="http://www.w3.org/2000/svg"
   xmlns:svg="http://www.w3.org/2000/svg">
  <defs
     id="defs8" />
  <sodipodi:namedview
     id="namedview6"
     pagecolor="#505050"
     bordercolor="#ffffff"
     borderopacity="1"
     inkscape:pageshadow="0"
     inkscape:pageopacity="0"
     inkscape:pagecheckerboard="1"
     showgrid="false"
     inkscape:zoom="1.2875"
     inkscape:cx="319.61165"
     inkscape:cy="320.38835"
     inkscape:window-width="1920"
     inkscape:window-height="1009"
     inkscape:window-x="1912"
     inkscape:window-y="-8"
     inkscape:window-maximized="1"
     inkscape:current-layer="svg4" />
  <!--!Font Awesome Free 7.2.0 by @fontawesome - https://fontawesome.com License - https://fontawesome.com/license/free Copyright 2026 Fonticons, Inc.-->
  <path
     d="M129.9 292.5C143.2 199.5 223.3 128 320 128C373 128 421 149.5 455.8 184.2C456 184.4 456.2 184.6 456.4 184.8L464 192L416.1 192C398.4 192 384.1 206.3 384.1 224C384.1 241.7 398.4 256 416.1 256L544.1 256C561.8 256 576.1 241.7 576.1 224L576.1 96C576.1 78.3 561.8 64 544.1 64C526.4 64 512.1 78.3 512.1 96L512.1 149.4L500.8 138.7C454.5 92.6 390.5 64 320 64C191 64 84.3 159.4 66.6 283.5C64.1 301 76.2 317.2 93.7 319.7C111.2 322.2 127.4 310 129.9 292.6zM573.4 356.5C575.9 339 563.7 322.8 546.3 320.3C528.9 317.8 512.6 330 510.1 347.4C496.8 440.4 416.7 511.9 320 511.9C267 511.9 219 490.4 184.2 455.7C184 455.5 183.8 455.3 183.6 455.1L176 447.9L223.9 447.9C241.6 447.9 255.9 433.6 255.9 415.9C255.9 398.2 241.6 383.9 223.9 383.9L96 384C87.5 384 79.3 387.4 73.3 393.5C67.3 399.6 63.9 407.7 64 416.3L65 543.3C65.1 561 79.6 575.2 97.3 575C115 574.8 129.2 560.4 129 542.7L128.6 491.2L139.3 501.3C185.6 547.4 249.5 576 320 576C449 576 555.7 480.6 573.4 356.5z"
     id="path2" />
  <path
     style="fill:#ffffff;stroke-width:0.776699"
     d="m 309.12621,575.44484 c -37.21686,-2.25732 -68.0732,-10.00343 -98.94091,-24.83792 -26.97335,-12.96292 -47.47255,-27.41998 -71.18045,-50.20002 -5.23448,-5.02962 -9.71055,-9.14476 -9.94681,-9.14476 -0.23626,0 -0.53602,13.36893 -0.66613,29.70873 l -0.23657,29.70874 -2.41581,5.04855 c -3.53951,7.39684 -7.87479,11.86216 -14.8762,15.32245 -5.72442,2.82916 -6.21039,2.92997 -14.124019,2.92997 -7.378273,0 -8.631257,-0.21402 -12.563768,-2.14602 -8.250873,-4.05357 -14.509176,-11.11115 -17.381661,-19.60155 -1.175342,-3.47404 -1.373213,-10.96531 -1.876722,-71.05143 -0.328636,-39.21772 -0.271714,-68.76975 0.136791,-71.0173 2.276644,-12.52583 13.36299,-23.17135 26.320493,-25.2739 6.653081,-1.07956 132.505406,-1.10246 138.228286,-0.0251 9.77746,1.84057 18.33263,8.49967 22.66191,17.63942 2.31334,4.88382 2.49264,5.84896 2.49264,13.41768 0,7.56872 -0.1793,8.53386 -2.49264,13.41768 -4.26683,9.00788 -12.54911,15.4449 -22.59413,17.56023 -2.51803,0.53026 -13.82542,0.87913 -29.12621,0.89865 l -25.01032,0.0319 8.50853,8.22662 c 26.04771,25.18468 54.97766,41.65305 87.74526,49.94898 18.68791,4.73131 27.6455,5.8079 48.21223,5.79448 26.9359,-0.0175 46.73614,-3.62924 70.35191,-12.83259 47.09133,-18.35207 85.91444,-55.84332 106.14838,-102.50686 6.44939,-14.87361 9.90034,-26.44093 13.07208,-43.81668 2.98904,-16.37481 8.01131,-23.91654 19.57456,-29.39429 4.7296,-2.24051 5.91777,-2.47377 12.60064,-2.47377 6.68288,0 7.87105,0.23326 12.60065,2.47377 9.93069,4.70437 16.59486,13.28217 18.52609,23.84587 1.01618,5.55843 -0.96386,19.36558 -5.10821,35.62022 -25.00344,98.06683 -105.64235,172.49052 -205.04765,189.24368 -15.92229,2.68344 -40.47762,4.28005 -53.59224,3.4846 z"
     id="path47" />
  <path
     style="fill:#ffffff;stroke-width:0.776699"
     d="m 90.965234,318.7973 c -8.572079,-2.15331 -17.54478,-9.53653 -21.144123,-17.39853 -3.371488,-7.3643 -3.74152,-11.94811 -1.886595,-23.37042 C 82.889243,185.93965 149.25361,107.8676 238.00451,77.95542 276.74479,64.898583 317.36614,61.23914 357.49337,67.191064 c 25.68921,3.810387 49.47023,11.151202 73.00345,22.534984 27.40404,13.256222 46.10627,26.491512 71.13645,50.342222 l 10.21139,9.73021 0.42029,-29.8507 c 0.4612,-32.757369 0.56933,-33.577152 5.42679,-41.14685 6.90689,-10.763471 20.06074,-16.224768 32.72055,-13.585124 12.74125,2.656627 22.38559,12.547428 24.7509,25.38342 0.53132,2.883336 0.73324,27.626754 0.58947,72.233004 l -0.21868,67.84738 -1.74204,4.27185 c -2.38783,5.85544 -6.81158,11.44546 -11.83471,14.95477 -8.41224,5.87706 -4.27375,5.56921 -78.46208,5.83647 -41.06124,0.14792 -68.28717,-0.0531 -71.33179,-0.52666 -10.82787,-1.68416 -20.00739,-8.39553 -24.527,-17.93227 -2.22762,-4.70044 -2.39246,-5.64335 -2.37666,-13.59445 0.0155,-7.81431 0.20635,-8.92643 2.23504,-13.02699 2.6442,-5.34468 8.06922,-11.23979 12.89361,-14.01087 6.9682,-4.00247 10.53887,-4.4159 38.41561,-4.44801 l 25.66206,-0.0296 -9.4243,-9.17826 c -38.50181,-37.49669 -87.65235,-56.68307 -140.86696,-54.98878 -16.02236,0.51013 -26.09237,1.8305 -40.22323,5.27402 -34.46969,8.39984 -64.69492,25.51989 -90.29448,51.14421 -20.57358,20.59347 -35.85583,44.94841 -45.38805,72.33378 -3.50987,10.08359 -5.53086,17.97203 -7.83867,30.59639 -2.22308,12.16081 -4.86376,18.04233 -10.44427,23.26224 -5.72262,5.35285 -12.5215,8.29561 -19.986652,8.65084 -3.310354,0.15753 -7.375732,-0.0544 -9.034174,-0.47103 z"
     id="path86" />
</svg>
