<?xml version="1.0" encoding="UTF-8" standalone="no"?>
<svg
   viewBox="0 0 640 640"
   version="1.1"
   id="svg4"
   sodipodi:docname="search.svg"
   inkscape:version="1.1 (c68e22c387, 2021-05-23)"
   xmlns:inkscape="http://www.inkscape.org/namespaces/inkscape"
   xmlns:sodipodi="http://sodipodi.sourceforge.net/DTD/sodipodi-0.dtd"
   xmlns="http://www.w3.org/2000/svg"
   xmlns:svg="http://www.w3.org/2000/svg">
  <defs
     id="defs8" />
  <sodipodi:namedview
     id="namedview6"
     pagecolor="#505050"
     bordercolor="#ffffff"
     borderopacity="1"
     inkscape:pageshadow="0"
     inkscape:pageopacity="0"
     inkscape:pagecheckerboard="1"
     showgrid="false"
     inkscape:zoom="1.2875"
     inkscape:cx="319.61165"
     inkscape:cy="320.38835"
     inkscape:window-width="1920"
     inkscape:window-height="1009"
     inkscape:window-x="1912"
     inkscape:window-y="-8"
     inkscape:window-maximized="1"
     inkscape:current-layer="svg4" />
  <!--!Font Awesome Free 7.2.0 by @fontawesome - https://fontawesome.com License - https://fontawesome.com/license/free Copyright 2026 Fonticons, Inc.-->
  <path
     d="M480 272C480 317.9 465.1 360.3 440 394.7L566.6 521.4C579.1 533.9 579.1 554.2 566.6 566.7C554.1 579.2 533.8 579.2 521.3 566.7L394.7 440C360.3 465.1 317.9 480 272 480C157.1 480 64 386.9 64 272C64 157.1 157.1 64 272 64C386.9 64 480 157.1 480 272zM272 416C351.5 416 416 351.5 416 272C416 192.5 351.5 128 272 128C192.5 128 128 192.5 128 272C128 351.5 192.5 416 272 416z"
     id="path2" />
  <path
     style="fill:#ffffff;stroke-width:0.776699"
     d="m 538.13113,575.11348 c -9.59371,-1.89805 -6.80038,0.62129 -77.17513,-69.60553 C 424.85073,469.47858 395.0667,440 394.76924,440 c -0.29744,0 -3.96065,2.23257 -8.14046,4.96127 -48.30508,31.53495 -104.26111,41.87092 -160.06843,29.56721 -28.55673,-6.29584 -60.49317,-21.55869 -83.64773,-39.97638 -13.5003,-10.73846 -30.9501,-29.27328 -40.9386,-43.48414 C 52.816437,321.13039 51.95157,226.9535 99.816359,156.1165 114.10609,134.96857 133.86589,115.0893 154.95146,100.64805 224.29333,53.156649 315.94423,52.351229 386.00925,98.617532 c 12.23706,8.080538 19.42075,13.929558 30.96819,25.214548 17.82099,17.41597 30.13421,34.43957 41.32863,57.13879 13.10986,26.58324 19.89402,53.52125 21.02769,83.49515 1.64413,43.47038 -9.98738,84.80975 -34.37249,122.16276 -2.7287,4.17981 -4.96127,7.84493 -4.96127,8.14471 0,0.29979 29.31445,29.90907 65.14323,65.79841 70.98587,71.10585 68.18869,67.95678 69.92179,78.7183 2.58547,16.05437 -8.07814,31.79343 -23.99339,35.41328 -5.80887,1.3212 -7.98612,1.39018 -12.9405,0.41 z M 286.54944,415.51058 c 31.8586,-2.35487 68.18352,-20.20219 90.68946,-44.55797 36.0496,-39.01261 48.20783,-93.90254 31.89905,-144.01238 -3.61142,-11.09632 -12.69555,-29.13266 -19.42527,-38.56844 -6.38273,-8.94925 -20.10756,-23.33965 -28.57801,-29.96384 -51.51514,-40.28674 -123.50306,-40.91685 -176.2847,-1.54303 -7.96937,5.94496 -22.04009,20.01568 -27.98505,27.98505 -33.2316,44.54784 -38.44193,103.81565 -13.43039,152.77144 7.60259,14.88077 16.10112,26.1604 29.23745,38.80525 10.88073,10.47367 20.4442,17.21673 34.3648,24.23012 17.682,8.90845 35.55083,13.91571 54.32244,15.22241 8.74848,0.60899 12.75824,0.55032 25.19022,-0.36861 z"
     id="path47" />
</svg>
